<svg width="248" height="52" viewBox="0 0 248 52" fill="none" xmlns="http://www.w3.org/2000/svg">
<path d="M50.4158 42H39.5002V10.6464H50.5536C53.6869 10.6464 56.3865 11.2741 58.6523 12.5294C60.9181 13.7746 62.6582 15.5658 63.8728 17.903C65.0975 20.2403 65.7099 23.0368 65.7099 26.2926C65.7099 29.5586 65.0975 32.3653 63.8728 34.7127C62.648 37.0602 60.8925 38.8616 58.6063 40.1169C56.3303 41.3723 53.6002 42 50.4158 42ZM45.7312 36.6264H50.1403C52.1917 36.6264 53.9115 36.259 55.2995 35.5241C56.6876 34.7791 57.7337 33.6462 58.4379 32.1254C59.1422 30.5945 59.4943 28.6502 59.4943 26.2926C59.4943 23.9451 59.1422 22.0111 58.4379 20.4903C57.7337 18.9696 56.6927 17.8469 55.3148 17.1223C53.937 16.3874 52.2376 16.02 50.2168 16.02H45.7312V36.6264ZM73.9349 42H67.26L78.1602 10.6464H86.0905L96.9908 42H90.3159L82.2479 17.505H82.0029L73.9349 42ZM73.7511 29.6913H90.4384V34.6056H73.7511V29.6913ZM100.925 42V10.6464H113.035C115.423 10.6464 117.449 11.0699 119.113 11.9171C120.776 12.754 122.042 13.9328 122.91 15.4535C123.777 16.9743 124.211 18.7553 124.211 20.7965C124.211 22.848 123.767 24.6187 122.879 26.1089C122.001 27.599 120.72 28.7421 119.036 29.5382C117.362 30.3343 115.321 30.7323 112.913 30.7323H104.6V25.6496H111.963C113.29 25.6496 114.382 25.471 115.24 25.1138C116.107 24.7463 116.75 24.2054 117.169 23.491C117.587 22.7663 117.796 21.8682 117.796 20.7965C117.796 19.7249 117.582 18.8165 117.153 18.0714C116.735 17.3264 116.092 16.7599 115.224 16.3721C114.367 15.9843 113.27 15.7903 111.933 15.7903H107.156V42H100.925ZM117.551 27.7623L125.328 42H118.424L110.8 27.7623H117.551ZM129.091 42V10.6464H135.322V24.7157H135.735L147.401 10.6464H154.933L143.099 24.7004L155.055 42H147.584L138.674 28.8799L135.322 32.9062V42H129.091ZM175.417 19.4952C175.284 18.2194 174.728 17.2294 173.748 16.5252C172.768 15.8108 171.462 15.4535 169.829 15.4535C168.706 15.4535 167.752 15.6168 166.966 15.9434C166.18 16.27 165.578 16.714 165.16 17.2753C164.741 17.8367 164.532 18.4797 164.532 19.2043C164.522 19.8065 164.654 20.3321 164.93 20.7812C165.206 21.2201 165.583 21.5977 166.063 21.9141C166.553 22.2203 167.104 22.4856 167.716 22.7102C168.329 22.9245 168.967 23.1082 169.63 23.2613L172.508 23.9655C173.794 24.2615 174.998 24.6596 176.121 25.1597C177.254 25.6496 178.244 26.262 179.091 26.9968C179.948 27.7214 180.617 28.589 181.097 29.5994C181.576 30.6098 181.821 31.7784 181.832 33.1052C181.821 34.9934 181.337 36.6366 180.377 38.0349C179.428 39.4331 178.055 40.5201 176.259 41.2958C174.473 42.0714 172.309 42.4593 169.768 42.4593C167.277 42.4593 165.114 42.0765 163.277 41.3111C161.439 40.5354 160.005 39.4025 158.975 37.9124C157.944 36.4223 157.398 34.5852 157.337 32.401H163.399C163.481 33.4625 163.797 34.3504 164.348 35.0649C164.91 35.7691 165.65 36.2998 166.568 36.657C167.497 37.0142 168.543 37.1929 169.707 37.1929C170.88 37.1929 171.901 37.0193 172.768 36.6723C173.646 36.3253 174.325 35.8456 174.805 35.2333C175.294 34.6107 175.544 33.8911 175.555 33.0746C175.544 32.3296 175.32 31.707 174.881 31.2069C174.452 30.6966 173.83 30.2679 173.013 29.9209C172.207 29.5739 171.237 29.2626 170.105 28.987L166.629 28.0991C164.006 27.4459 161.934 26.4406 160.414 25.0831C158.903 23.7257 158.148 21.8988 158.148 19.6024C158.148 17.7346 158.653 16.0965 159.664 14.6881C160.684 13.2796 162.077 12.1824 163.843 11.3965C165.619 10.6107 167.635 10.2177 169.89 10.2177C172.176 10.2177 174.177 10.6107 175.892 11.3965C177.606 12.1824 178.943 13.2745 179.903 14.6728C180.872 16.0608 181.372 17.6683 181.403 19.4952H175.417ZM206.051 10.6464H212.282V31.0538C212.282 33.3298 211.746 35.3251 210.674 37.0398C209.603 38.7442 208.097 40.0761 206.158 41.0355C204.229 41.9847 201.974 42.4593 199.391 42.4593C196.809 42.4593 194.549 41.9847 192.609 41.0355C190.68 40.0761 189.18 38.7442 188.108 37.0398C187.047 35.3251 186.516 33.3298 186.516 31.0538V10.6464H192.747V30.5333C192.747 31.7682 193.023 32.8705 193.574 33.8401C194.125 34.8097 194.896 35.5701 195.886 36.1212C196.886 36.6621 198.054 36.9326 199.391 36.9326C200.749 36.9326 201.923 36.6621 202.913 36.1212C203.913 35.5701 204.683 34.8097 205.224 33.8401C205.775 32.8705 206.051 31.7682 206.051 30.5333V10.6464ZM244.091 10.6464V42H238.641L224.526 21.6079H224.281V42H218.05V10.6464H223.561L237.6 31.0385H237.875V10.6464H244.091Z" fill="white"/>
<path fill-rule="evenodd" clip-rule="evenodd" d="M32.0933 26.9327C32.0933 17.604 24.5309 10.0415 15.2021 10.0415L3.37824 10.0415C1.51249 10.0415 5.98391e-07 11.554 5.16837e-07 13.4197L0 25.2436C-4.07776e-07 34.5724 7.56245 42.1348 16.8912 42.1348H28.7151C30.5808 42.1348 32.0933 40.6223 32.0933 38.7566V26.9327ZM22.6652 34.9633C27.5249 31.3498 28.5352 24.4809 24.9217 19.6212C21.3082 14.7615 14.4394 13.7512 9.57966 17.3647C4.71996 20.9782 3.7097 27.8471 7.32318 32.7068C10.9367 37.5665 17.8055 38.5767 22.6652 34.9633Z" fill="#FF2101"/>
</svg>
